<?xml version="1.0" encoding="utf-8"?>
<!-- Generator: Adobe Illustrator 16.0.0, SVG Export Plug-In . SVG Version: 6.00 Build 0)  -->
<!DOCTYPE svg PUBLIC "-//W3C//DTD SVG 1.1//EN" "http://www.w3.org/Graphics/SVG/1.1/DTD/svg11.dtd">
<svg version="1.1" id="图层_1" xmlns="http://www.w3.org/2000/svg" xmlns:xlink="http://www.w3.org/1999/xlink" x="0px" y="0px"
	 width="1200px" height="1200px" viewBox="0 0 1200 1200" enable-background="new 0 0 1200 1200" xml:space="preserve">
<rect fill="#0E67B4" width="1200" height="1200"/>
<rect fill="#0E67B4" width="1200" height="1200"/>
<path fill="#F7F3E8" d="M592.385,227.047c-142.14,0-257.373,115.233-257.373,257.373s115.233,257.373,257.373,257.373
	c142.141,0,257.373-115.233,257.373-257.373S734.525,227.047,592.385,227.047z M592.385,753.491
	c-148.574,0-269.071-120.497-269.071-269.071s120.498-269.071,269.071-269.071c148.574,0,269.071,120.497,269.071,269.071
	S740.959,753.491,592.385,753.491z"/>
<text transform="matrix(1 0 0 1 333.9375 898.0127)"><tspan x="0" y="0" fill="#F7F3E8" font-family="'Quicksand-Bold'" font-size="130.2861">B</tspan><tspan x="78.431" y="0" fill="#F7F3E8" font-family="'Quicksand-Bold'" font-size="130.2861" letter-spacing="-6">A</tspan><tspan x="158.166" y="0" fill="#F7F3E8" font-family="'Quicksand-Bold'" font-size="130.2861">TMEN</tspan></text>
<path fill="#F7F3E8" d="M379.133,970.347c0.408-4.459,2.206-6.784,4.507-6.784c1.798,0,3.308,1.414,2.997,6.784H379.133z
	 M384.215,985.736c2.206,0,4.579-0.814,5.993-1.726l-1.63-3.644c-0.767,0.599-2.374,1.318-3.86,1.318
	c-2.397,0-5.082-1.822-5.609-7.336l11.459,0.024c1.606-9.062-1.319-15.007-6.832-15.007c-4.747,0-9.062,4.363-9.062,13.017
	C374.675,980.798,378.75,985.736,384.215,985.736z M360.867,985.281h4.387V965.84c1.438-1.511,3.404-1.966,5.945-1.966v-4.459
	c-2.421,0-4.747,0.959-6.712,2.469l-3.62-2.517V985.281z M343.343,970.347c0.408-4.459,2.206-6.784,4.507-6.784
	c1.798,0,3.308,1.414,2.997,6.784H343.343z M348.425,985.736c2.206,0,4.579-0.814,5.993-1.726l-1.63-3.644
	c-0.767,0.599-2.374,1.318-3.86,1.318c-2.397,0-5.082-1.822-5.609-7.336l11.458,0.024c1.606-9.062-1.318-15.007-6.832-15.007
	c-4.746,0-9.062,4.363-9.062,13.017C338.884,980.798,342.959,985.736,348.425,985.736z M316.039,985.281h4.267v-19.178
	c1.294-1.582,2.997-2.325,4.507-2.325c2.589,0,3.931,1.798,3.931,5.058v16.445h4.267v-16.493c0-6.017-2.637-9.349-7.719-9.349
	c-1.726,0-3.596,0.791-4.986,1.917v-14.263h-4.267V985.281z M291.635,986.456l4.123-11.195l1.894-5.346l1.894,5.346l4.124,11.195
	l8.222-39.362h-4.794l-3.667,19.105l-0.959,6.137l-2.134-6.137l-2.685-7.336l-2.685,7.336l-2.157,6.137l-0.935-6.137l-3.668-19.105
	h-4.794L291.635,986.456z"/>
<path fill="#F7F3E8" d="M519.635,990.315l2.085,3.452c3.62-2.638,4.771-4.555,6.568-11.123l6.233-22.822h-4.555l-3.308,12.97
	l-1.175,5.369l-1.174-5.394l-3.596-12.945h-4.555l7.432,24.38C523.327,986.743,522.104,988.373,519.635,990.315z M504.604,980.774
	c-2.613,0-5.082-1.966-5.082-8.726c0-6.761,2.469-8.727,5.082-8.727c1.127,0,2.134,0.384,2.973,1.079v15.318
	C506.738,980.391,505.731,980.774,504.604,980.774z M500.529,990.555l2.085,3.452c6.593-2.709,9.229-6.904,9.229-12.633v-22.031
	l-3.164,1.534c-1.223-1.03-2.757-1.582-4.531-1.582c-4.699,0-8.966,3.859-8.966,12.754c0,8.894,4.267,12.753,8.966,12.753
	c1.15,0,2.205-0.216,3.14-0.671C506.642,986.815,504.772,988.829,500.529,990.555z M481.519,981.541
	c-2.277,0-4.747-2.325-4.747-8.989s2.469-8.989,4.747-8.989s4.747,2.325,4.747,8.989S483.796,981.541,481.519,981.541z
	 M481.519,985.736c4.771,0,9.205-4.362,9.205-13.185c0-8.821-4.435-13.185-9.205-13.185s-9.206,4.363-9.206,13.185
	C472.313,981.374,476.749,985.736,481.519,985.736z M462.485,985.281h4.267v-38.188h-4.267V985.281z M447.742,981.541
	c-2.277,0-4.747-2.325-4.747-8.989s2.469-8.989,4.747-8.989s4.746,2.325,4.746,8.989S450.02,981.541,447.742,981.541z
	 M447.742,985.736c4.771,0,9.205-4.362,9.205-13.185c0-8.821-4.435-13.185-9.205-13.185s-9.206,4.363-9.206,13.185
	C438.537,981.374,442.972,985.736,447.742,985.736z M427.869,985.281h4.267v-25.459h-4.267V985.281z M430.146,955.46
	c1.87,0,3.092-1.391,3.092-2.973s-1.223-2.973-3.092-2.973c-1.87,0-3.093,1.391-3.093,2.973S428.276,955.46,430.146,955.46z
	 M410.153,980.727v-11.555c3.644,0,6.401,3.021,6.401,5.777C416.554,978.401,413.797,980.727,410.153,980.727z M410.153,965.192
	v-13.568c2.374,0,5.298,2.781,5.298,6.784C415.451,962.315,412.527,965.192,410.153,965.192z M405.695,985.713
	c10.212,0,15.486-4.555,15.486-10.764c0-3.716-1.822-6.593-5.058-8.486c2.517-2.277,3.956-5.37,3.956-8.079
	c0-6.28-4.915-11.746-14.383-11.746V985.713z"/>
<path fill="#F7F3E8" d="M632.903,984.011c1.606,0.982,3.477,1.702,5.874,1.702c4.41,0,7.719-2.997,7.719-6.952
	c0-2.9-1.247-5.106-4.579-7.839l-1.869-1.534c-1.75-1.438-2.374-2.397-2.374-3.477c0-1.318,1.055-2.493,2.829-2.493
	c1.246,0,2.493,0.36,3.668,1.223l1.773-3.979c-1.798-0.91-3.5-1.294-5.346-1.294c-4.267,0-7.239,3.116-7.239,6.688
	c0,2.685,1.294,5.058,4.003,7.144l1.63,1.294c1.631,1.295,3.117,2.518,3.117,4.291c0,1.702-1.318,2.829-3.236,2.829
	c-1.486,0-3.068-0.552-4.315-1.366L632.903,984.011z M619.623,975.165c0,6.903,2.9,10.308,8.678,10.548v-4.268
	c-3.26-0.551-4.411-2.397-4.411-6.232V963.85h4.076v-4.027h-4.076v-8.486h-4.267v8.486h-1.894v4.027h1.894V975.165z
	 M601.332,970.347c0.408-4.459,2.206-6.784,4.507-6.784c1.798,0,3.309,1.414,2.997,6.784H601.332z M606.414,985.736
	c2.206,0,4.579-0.814,5.993-1.726l-1.63-3.644c-0.768,0.599-2.373,1.318-3.859,1.318c-2.397,0-5.082-1.822-5.609-7.336l11.458,0.024
	c1.606-9.062-1.318-15.007-6.832-15.007c-4.746,0-9.061,4.363-9.061,13.017C596.874,980.798,600.948,985.736,606.414,985.736z
	 M580.668,970.347c0.408-4.459,2.206-6.784,4.507-6.784c1.798,0,3.308,1.414,2.997,6.784H580.668z M585.75,985.736
	c2.206,0,4.579-0.814,5.993-1.726l-1.63-3.644c-0.767,0.599-2.374,1.318-3.859,1.318c-2.397,0-5.083-1.822-5.61-7.336l11.459,0.024
	c1.606-9.062-1.319-15.007-6.832-15.007c-4.747,0-9.062,4.363-9.062,13.017C576.209,980.798,580.285,985.736,585.75,985.736z
	 M547.874,985.281h4.459v-17.979l-0.144-4.771l2.541,4.843l4.171,7.575v0.023l0.024,0.024v-0.048l4.147-7.552l2.541-4.866
	l-0.12,4.818v17.932h4.459v-39.65l-11.051,20.232l-11.027-20.232V985.281z"/>
<path fill="#F7F3E8" d="M857.044,990.315l2.086,3.452c3.62-2.638,4.771-4.555,6.568-11.123l6.232-22.822h-4.555l-3.308,12.97
	l-1.175,5.369l-1.175-5.394l-3.596-12.945h-4.555l7.432,24.38C860.736,986.743,859.514,988.373,857.044,990.315z M832.041,985.281
	h4.268v-19.178c1.294-1.582,2.996-2.325,4.507-2.325c2.589,0,3.931,1.798,3.931,5.058v16.445h4.268v-16.493
	c0-6.017-2.637-9.349-7.719-9.349c-1.727,0-3.597,0.791-4.986,1.917v-14.263h-4.268V985.281z M817.634,975.165
	c0,6.903,2.9,10.308,8.678,10.548v-4.268c-3.26-0.551-4.41-2.397-4.41-6.232V963.85h4.075v-4.027h-4.075v-8.486h-4.268v8.486h-1.894
	v4.027h1.894V975.165z M801.74,985.281h4.387V965.84c1.438-1.511,3.404-1.966,5.945-1.966v-4.459c-2.421,0-4.746,0.959-6.712,2.469
	l-3.62-2.517V985.281z M786.997,981.541c-2.277,0-4.746-2.325-4.746-8.989s2.469-8.989,4.746-8.989s4.747,2.325,4.747,8.989
	S789.274,981.541,786.997,981.541z M786.997,985.736c4.771,0,9.206-4.362,9.206-13.185c0-8.821-4.436-13.185-9.206-13.185
	s-9.205,4.363-9.205,13.185C777.792,981.374,782.227,985.736,786.997,985.736z M757.535,986.743l3.236-8.103l1.702-4.698
	l1.702,4.723l3.236,8.078l7.479-26.921h-4.555l-2.781,11.123l-0.935,4.22l-1.486-4.268l-2.661-6.76l-2.517,6.76l-1.391,4.268
	l-1.007-4.268l-2.948-11.075h-4.556L757.535,986.743z M738.286,975.165c0,6.903,2.9,10.308,8.678,10.548v-4.268
	c-3.261-0.551-4.411-2.397-4.411-6.232V963.85h4.075v-4.027h-4.075v-8.486h-4.267v8.486h-1.895v4.027h1.895V975.165z
	 M718.077,984.011c1.606,0.982,3.476,1.702,5.873,1.702c4.411,0,7.719-2.997,7.719-6.952c0-2.9-1.246-5.106-4.578-7.839l-1.87-1.534
	c-1.75-1.438-2.373-2.397-2.373-3.477c0-1.318,1.055-2.493,2.829-2.493c1.246,0,2.493,0.36,3.667,1.223l1.774-3.979
	c-1.798-0.91-3.5-1.294-5.346-1.294c-4.268,0-7.24,3.116-7.24,6.688c0,2.685,1.295,5.058,4.004,7.144l1.63,1.294
	c1.63,1.295,3.116,2.518,3.116,4.291c0,1.702-1.318,2.829-3.236,2.829c-1.486,0-3.068-0.552-4.314-1.366L718.077,984.011z
	 M695.688,977.442c0,5.394,3.188,8.271,7.167,8.271c2.518,0,4.771-1.055,6.233-2.206l3.164,2.254v-25.938h-4.268v19.586
	c-0.958,1.246-2.373,2.014-4.123,2.014c-2.589,0-3.907-1.654-3.907-5.011v-16.589h-4.267V977.442z M680.561,985.281h4.387V965.84
	c1.438-1.511,3.404-1.966,5.945-1.966v-4.459c-2.421,0-4.746,0.959-6.712,2.469l-3.62-2.517V985.281z M664.979,985.281h4.459
	v-33.969h5.993v-4.219h-16.445v4.219h5.993V985.281z"/>
<path fill="#F7F3E8" d="M908.801,985.281h4.458v-38.188h-4.458V985.281z M889.407,974.709l2.589-9.853l0.935-4.555l0.983,4.555
	l2.564,9.853H889.407z M881.855,985.281h4.795l1.653-6.353h9.277l1.679,6.353h4.794l-11.099-39.362L881.855,985.281z"/>
<path fill="#F7F3E8" d="M745.114,439.039c2.929,0,5.324,2.396,5.324,5.324s-2.396,5.324-5.324,5.324s-5.324-2.396-5.324-5.324
	S742.186,439.039,745.114,439.039z M748.575,502.928c2.928,0,5.323,2.396,5.323,5.324s-2.396,5.324-5.323,5.324
	c-2.929,0-5.324-2.396-5.324-5.324S745.646,502.928,748.575,502.928z M681.226,410.556V442.5c0,2.928-2.396,5.324-5.324,5.324H657.8
	v10.648h13.31c2.929,0,5.324,2.396,5.324,5.324c0,2.929-2.396,5.324-5.324,5.324h-18.634c-2.929,0-5.324-2.396-5.324-5.324v-31.944
	H632.51c-6.389,9.583-13.043,19.433-14.374,29.815c-0.267,2.129-1.331,9.85-1.598,17.037h1.598c2.928,0,5.323,2.396,5.323,5.324
	c0,2.929-2.396,5.324-5.323,5.324h-47.917c-2.928,0-5.324-2.396-5.324-5.324c0-2.928,2.396-5.324,5.324-5.324h1.597
	c0-6.389-0.798-12.512-1.863-18.9c-2.396-10.648-8.519-19.167-14.908-27.952l-0.266-0.266h-14.641v31.944
	c0,2.928-2.396,5.324-5.324,5.324H516.18c-2.929,0-5.324-2.396-5.324-5.324s2.396-5.324,5.324-5.324h13.31v-10.648h-15.44
	c-2.928,0-5.324-2.396-5.324-5.324v-31.945h-5.856c0.799-3.727,1.598-7.188,2.662-10.648h8.519c2.928,0,5.324,2.396,5.324,5.324
	v31.944h10.116v-10.648c0-2.929,2.396-5.324,5.324-5.324h12.778c-4.259-7.986-6.655-17.037-6.655-26.088
	c0-30.081,23.958-54.838,53.24-54.838s53.241,24.491,53.241,54.838c-0.267,9.317-2.929,18.102-7.986,26.088h13.044
	c2.928,0,5.324,2.396,5.324,5.324v10.648h12.777v-31.944c0-2.928,2.396-5.324,5.324-5.324h7.188
	c1.064,3.46,1.863,6.921,2.662,10.648h-4.525V410.556z M606.156,510.914h-23.958c-2.928,0-5.324-2.396-5.324-5.324
	s2.396-5.324,5.324-5.324h23.958c2.928,0,5.324,2.396,5.324,5.324S609.084,510.914,606.156,510.914z M439.779,513.576
	c-2.928,0-5.324-2.396-5.324-5.324s2.396-5.324,5.324-5.324s5.324,2.396,5.324,5.324S442.708,513.576,439.779,513.576z
	 M447.765,444.363c0,2.928-2.396,5.324-5.324,5.324s-5.324-2.396-5.324-5.324s2.396-5.324,5.324-5.324
	S447.765,441.435,447.765,444.363z M439.779,342.94c-2.928,0-5.324-2.396-5.324-5.324s2.396-5.324,5.324-5.324
	s5.324,2.396,5.324,5.324S442.708,342.94,439.779,342.94z M748.575,332.292c2.928,0,5.323,2.396,5.323,5.324
	s-2.396,5.324-5.323,5.324c-2.929,0-5.324-2.396-5.324-5.324S745.646,332.292,748.575,332.292z M733.401,342.94
	c2.928,8.252,11.979,12.778,20.497,9.85c8.253-2.928,12.778-11.979,9.85-20.498c-2.928-8.252-11.979-12.778-20.497-9.85
	c-4.525,1.597-8.253,5.058-9.85,9.85h-12.778c-2.928,0-5.323,2.396-5.323,5.324v76.667h-7.454
	c-7.72-62.824-64.953-107.28-127.777-99.56c-51.91,6.655-92.905,47.65-99.56,99.56h-8.252v-76.667c0-2.928-2.396-5.324-5.324-5.324
	h-12.246c-2.662-8.252-11.979-12.512-20.231-9.583s-12.778,11.979-9.85,20.498s11.979,12.778,20.498,9.85
	c4.526-1.597,8.252-5.058,9.85-9.85h6.921v47.917h-19.965c-2.928,0-5.324,2.396-5.324,5.324v33.009
	c-8.252,3.194-12.246,12.511-9.051,20.764c3.195,8.252,12.512,12.245,20.764,9.051c8.252-3.194,12.245-12.511,9.051-20.764
	c-1.863-4.525-5.324-7.986-10.116-9.317v-27.418h14.375v18.102c0,2.928,2.396,5.324,5.324,5.324h12.777c0,1.065,0,2.129,0,3.46
	c0,10.382,1.331,20.764,4.259,30.613h-9.583c-2.928,0-5.324,2.396-5.324,5.324v38.067h-14.375
	c-3.194-8.252-12.512-12.245-20.764-8.785c-8.252,3.194-12.246,12.512-8.785,20.764c3.194,8.252,12.511,12.245,20.764,8.785
	c4.525-1.864,7.986-5.59,9.317-10.116h19.167c2.928,0,5.324-2.396,5.324-5.324v-38.333h7.72
	c16.504,42.061,56.169,70.811,101.423,72.94v16.238h-7.986c-5.856,0-10.648,4.792-10.648,10.648v61.226
	c0,13.311,10.648,23.959,23.958,23.959c13.311,0,23.959-10.648,23.959-23.959v-61.226c0-5.857-4.792-10.648-10.648-10.648h-7.986
	v-16.238c45.255-2.129,84.919-30.879,101.424-73.206h6.921v38.067c0,2.928,2.396,5.324,5.324,5.324h19.965
	c2.662,8.519,11.447,13.311,19.966,10.648s13.31-11.447,10.647-19.965s-11.446-13.31-19.965-10.648
	c-4.525,1.331-8.252,4.792-10.115,9.317h-15.174v-37.801c0-2.928-2.396-5.324-5.324-5.324h-8.785
	c2.662-9.85,4.26-20.231,4.26-30.613c0-1.065,0-2.129,0-3.46h11.979c2.929,0,5.324-2.396,5.324-5.324v-17.835h14.375v27.418
	c-8.519,2.662-13.044,11.713-10.382,19.965c2.662,8.519,11.713,13.044,19.966,10.382c8.519-2.662,13.044-11.713,10.382-19.965
	c-1.598-4.525-5.059-8.252-9.317-10.116v-33.009c0-2.928-2.396-5.324-5.324-5.324h-19.699v-47.917h7.454V342.94z"/>
<path fill="#F7F3E8" d="M585.393,373.021c-5.324,2.396-9.583,6.655-11.713,12.245c-1.064,2.662-4.259,3.993-6.921,2.928
	c-2.662-1.064-3.993-4.259-2.928-6.921v-0.266c3.194-7.986,9.317-14.375,17.037-17.835c2.662-1.065,5.856,0.266,6.921,2.928
	S587.788,371.69,585.393,373.021z M594.177,350.926c-23.426,0-42.592,19.699-42.592,44.19c0,9.051,2.662,18.102,7.986,25.29
	c1.331,1.863,2.396,3.46,3.727,5.324c6.921,9.317,13.843,19.167,16.771,31.944c1.331,6.921,2.129,13.843,2.129,20.764v0.266h23.426
	c0,0,0,0,0-0.266c0.266-7.72,1.331-15.973,1.597-18.368c1.863-13.31,9.85-25.29,17.037-35.671c1.863-2.662,3.461-5.324,5.058-7.72
	c5.059-8.252,7.188-14.907,7.188-21.563C636.77,370.891,617.603,350.926,594.177,350.926z"/>
</svg>
